<svg xmlns="http://www.w3.org/2000/svg" viewBox="0 0 133.63 160.58"><defs><style>.cls-1,.cls-4{fill:#052b48;}.cls-2{fill:#b4c7d3;}.cls-3,.cls-5{fill:#ca2333;}.cls-4,.cls-5{font-size:20px;font-family:GillSansMT-Bold, Gill Sans MT;font-weight:700;}.cls-6{letter-spacing:-0.06em;}</style></defs><g id="Слой_2" data-name="Слой 2"><g id="Слой_1-2" data-name="Слой 1"><path class="cls-1" d="M63.91,130a1,1,0,0,1-.94-.66l-4.36-12.12A53.72,53.72,0,0,1,53.17,116l-6.7,10a1,1,0,0,1-.83.44,1,1,0,0,1-.44-.1l-8.34-4.13a1,1,0,0,1-.54-1.09l2.31-11.75a54,54,0,0,1-6.08-4.62l-9.1,5.41a1.06,1.06,0,0,1-.51.14,1,1,0,0,1-.75-.34L16,103a1,1,0,0,1-.09-1.21l6.21-9.55a52.53,52.53,0,0,1-3.9-7.84L7.13,85a1,1,0,0,1-1-.76l-2.29-9a1,1,0,0,1,.47-1.12l10.22-5.79c-.1-1.35-.14-2.59-.14-3.75,0-.9,0-1.87.09-2.93l-10-3.47a1,1,0,0,1-.66-1.08l1.32-9.21a1,1,0,0,1,.86-.85l11.86-1.49a53.61,53.61,0,0,1,3.38-7.2L13,30.49a1,1,0,0,1-.11-1.33l5.63-7.41a1,1,0,0,1,1.18-.31l11.12,4.64a53.32,53.32,0,0,1,6-5l-3-11.26a1,1,0,0,1,.54-1.16l8.43-3.94a1,1,0,0,1,.42-.09A1,1,0,0,1,44,5l7.41,8.72a53.42,53.42,0,0,1,7.78-1.89l3-11.1a1,1,0,0,1,1-.74h9.3a1,1,0,0,1,1,.81l2.12,10.87a52.26,52.26,0,0,1,6,1.22L89.4,3.65a1,1,0,0,1,.77-.35,1.06,1.06,0,0,1,.42.09L99,7.33a1,1,0,0,1,.55,1.14L96.93,19.33a1,1,0,0,1-1,.77,1.26,1.26,0,0,1-.27,0,46.29,46.29,0,1,0,2.25,88.2,1.13,1.13,0,0,1,.32-.05,1,1,0,0,1,1,.8l2.2,10.82a1,1,0,0,1-.6,1.12l-8.62,3.52a1,1,0,0,1-.37.08,1,1,0,0,1-.8-.39l-6.66-8.68a52.78,52.78,0,0,1-9,2.08l-1.15,10.79a1,1,0,0,1-.91.89L64,130Z"/><path class="cls-1" d="M82.79,111.81A47.29,47.29,0,1,1,96,19.1L98.59,8.24,90.17,4.3,81.91,14a50.44,50.44,0,0,0-7.3-1.46h.09L72.45,1h-9.3L59.94,12.73l-.25,0a51.72,51.72,0,0,0-8.64,2.14L43.2,5.66,34.77,9.59q1.57,6,3.16,11.94A51.85,51.85,0,0,0,31,27.26l-11.73-4.9-5.64,7.4,8.88,8.44a52.08,52.08,0,0,0-3.92,8.3L6.18,48.06,4.86,57.27,15.55,61c-.08,1.2-.13,2.41-.13,3.63,0,1.45.07,2.88.19,4.31L4.84,75l2.29,9,11.75-.67a52.6,52.6,0,0,0,4.42,8.89l-6.55,10.08,6.19,7,9.73-5.78a52.21,52.21,0,0,0,7.07,5.37L37.31,121.3l8.33,4.13,7.11-10.58h0a51.09,51.09,0,0,0,6.79,1.56l-.15,0L63.91,129l9.27-.8,1.24-11.57a52,52,0,0,0,10.32-2.36l7.1,9.24,8.61-3.52q-1.1-5.41-2.2-10.82A47.06,47.06,0,0,1,82.79,111.81Z"/><polyline class="cls-2" points="63.15 6.42 63.1 6.66 62.01 11.98 59.09 13.66 60.24 13.54 61.05 13.46 62.4 12.75 62.95 12.19"/><polyline class="cls-2" points="37.41 13.77 37.5 13.99 39.6 19.01 38.14 22.05 39.02 21.29 39.64 20.77 40.36 19.43 40.49 18.65"/><polyline class="cls-2" points="18.88 32.12 19.04 32.29 22.82 36.2 22.56 39.56 23.11 38.54 23.5 37.83 23.68 36.32 23.52 35.55"/><polyline class="cls-2" points="9.25 56.48 9.48 56.57 14.55 58.52 15.74 61.67 15.8 60.51 15.85 59.71 15.38 58.26 14.91 57.63"/><polyline class="cls-2" points="11.45 80.97 11.69 80.98 17.12 81.15 19.28 83.74 18.96 82.63 18.74 81.85 17.82 80.64 17.16 80.19"/><polyline class="cls-2" points="26.1 105.26 26.32 105.15 31.12 102.61 34.28 103.8 33.45 102.98 32.87 102.42 31.47 101.82 30.69 101.75"/><polyline class="cls-2" points="46.69 119.45 46.85 119.27 50.49 115.23 53.87 115.27 52.81 114.78 52.07 114.45 50.55 114.37 49.79 114.58"/><polyline class="cls-2" points="69.8 123.4 69.88 123.17 71.82 118.09 74.97 116.9 73.81 116.84 73 116.79 71.56 117.27 70.92 117.74"/><polyline class="cls-2" points="87 10.04 86.84 10.22 83.22 14.27 79.84 14.25 80.9 14.73 81.64 15.06 83.16 15.13 83.92 14.92"/><path class="cls-3" d="M81.29,113.19c-25.94,0-47-21.9-47-48.83s21.1-48.82,47-48.82a45.68,45.68,0,0,1,23,6.25,1,1,0,0,1,.39,1.31,1,1,0,0,1-.86.56.8.8,0,0,1-.37-.08,35.41,35.41,0,0,0-14.28-3c-21.68,0-39.31,19.84-39.31,44.23S67.51,109,89.19,109a35.13,35.13,0,0,0,8.68-1.1l.23,0a1,1,0,0,1,.92.7,1,1,0,0,1-.56,1.23A45.28,45.28,0,0,1,81.29,113.19Z"/><path class="cls-3" d="M89.11,110c-22.19,0-40.19-20.25-40.19-45.23s18-45.23,40.19-45.23a36.18,36.18,0,0,1,14.61,3.1,44.39,44.39,0,0,0-22.5-6.12c-25.39,0-46,21.41-46,47.82s20.58,47.83,46,47.83A44.11,44.11,0,0,0,98,108.89,35.86,35.86,0,0,1,89.11,110Z"/><text class="cls-4" transform="translate(0 154.2)">LIKE</text><text class="cls-5" transform="translate(47.36 154.2)">SE<tspan class="cls-6" x="24.78" y="0">R</tspan><tspan x="37.11" y="0">VICE</tspan></text></g></g></svg>